<svg width="105" height="21" fill="none" xmlns="http://www.w3.org/2000/svg"><rect x="42" width="21" height="21" rx="10.5" fill="#000"/><path d="m48.5 10.35 2.819 2.25L56.5 8.1" stroke="#fff" stroke-width="1.3"/><rect x="84" width="21" height="21" rx="10.5" fill="#000"/><path fill-rule="evenodd" clip-rule="evenodd" d="m94.5 11.443 2.357 2.357 1.06-1.06-2.356-2.358L97.8 8.143l-1.06-1.06-2.24 2.239-2.24-2.24-1.06 1.061 2.24 2.24-2.358 2.356 1.061 1.06 2.357-2.356z" fill="#fff"/><circle cx="10.5" cy="10.5" r="9.85" stroke="#000" stroke-width="1.3"/><circle cx="31.5" cy="10.5" r="9.85" fill="url(#a)" stroke="#000" stroke-width="1.3"/><circle cx="73.5" cy="10.5" r="9.85" fill="#000" stroke="#000" stroke-width="1.3"/><path d="m78 7.195-6.657 6.695-1.188-1.213L76.795 6 78 7.195zM69 15l1.766-.53-1.24-1.195L69 15z" fill="#fff"/><defs><radialGradient id="a" cx="0" cy="0" r="1" gradientUnits="userSpaceOnUse" gradientTransform="matrix(0 -10 10 0 31.5 10.5)"><stop/><stop offset="1" stop-opacity="0"/></radialGradient></defs></svg>